<svg width="425" height="309" viewBox="0 0 425 309" fill="none" xmlns="http://www.w3.org/2000/svg">
<path d="M416.215 0.0805706C415.875 0.0785706 415.535 0.0975692 415.197 0.138569V0.0585712L245.117 20.6986L75.0368 0.0585712C70.6508 -0.471429 66.6648 2.65457 66.1348 7.04057C66.0938 7.37857 66.0748 7.71857 66.0768 8.05857V124.779C41.5548 151.724 40.4657 192.565 63.5168 220.779L2.79675 281.339C-0.559247 284.213 -0.950247 289.263 1.92375 292.619C4.79775 295.975 9.84775 296.366 13.2038 293.492C13.5168 293.224 13.8088 292.932 14.0768 292.619L65.9968 240.699V280.139C65.9678 284.208 68.9968 287.651 73.0368 288.139L244.317 308.859H246.237L417.117 288.139C421.157 287.651 424.186 284.208 424.157 280.139V8.13857C424.188 3.72057 420.633 0.112571 416.215 0.0805706ZM79.1748 134C79.3408 133.832 79.5078 133.664 79.6768 133.498C102.122 111.079 138.491 111.101 160.909 133.546C183.327 155.991 183.306 192.36 160.861 214.778C138.435 237.178 102.102 237.178 79.6758 214.778C57.2318 192.611 57.0068 156.445 79.1748 134ZM237.116 291.899L82.0758 273.099V236.699C116.671 257.871 161.88 246.99 183.052 212.395C204.224 177.8 193.343 132.591 158.748 111.419C135.219 97.0186 105.605 97.0186 82.0758 111.419V17.0186L237.116 35.8186V291.899ZM408.156 273.099L253.116 291.899V35.8986L408.156 17.0986V273.099Z" fill="#7B965A"/>
<path d="M121.018 13.6581L9.01815 0.0581513C4.60015 -0.471849 0.588153 2.68015 0.0581531 7.09815C-0.471847 11.5162 2.68015 15.5282 7.09815 16.0582H7.33815L119.338 29.6581H120.058C124.476 29.9231 128.273 26.5561 128.538 22.1381C128.803 17.7191 125.436 13.9231 121.018 13.6581Z" transform="translate(92.2585 64.6404)" fill="#7B965A"/>
<path d="M128.495 7.09815C127.965 2.68015 123.953 -0.471849 119.535 0.0581513L7.53462 13.6581C3.11662 13.9231 -0.250371 17.7201 0.0146286 22.1381C0.279629 26.5561 4.07664 29.9231 8.49464 29.6581H9.45463L121.455 16.0582C125.873 15.5272 129.025 11.5162 128.495 7.09815Z" transform="translate(266.222 64.6404)" fill="#7B965A"/>
<path d="M128.495 7.09815C127.965 2.68015 123.953 -0.471856 119.535 0.0581443L7.53462 13.6582C3.11662 13.9232 -0.250371 17.7201 0.0146286 22.1381C0.279629 26.5561 4.07664 29.9231 8.49464 29.6581H9.45463L121.455 16.0581C125.873 15.5281 129.025 11.5162 128.495 7.09815Z" transform="translate(266.222 132)" fill="#7B965A"/>
<path d="M128.495 7.09815C127.965 2.68015 123.953 -0.471855 119.535 0.0581449L7.53462 13.6582C3.11662 13.9232 -0.250371 17.7202 0.0146286 22.1382C0.279629 26.5562 4.07664 29.9232 8.49464 29.6582H9.45463L121.455 16.0581C125.873 15.5281 129.025 11.5162 128.495 7.09815Z" transform="translate(266.222 199.36)" fill="#7B965A"/>
</svg>
