<svg width="456" height="355" viewBox="0 0 456 355" fill="none" xmlns="http://www.w3.org/2000/svg">
<path d="M454.037 182.11C453.353 180.958 452.391 179.996 451.239 179.312H451.719L157.959 1.07175C155.484 -0.357251 152.434 -0.357251 149.959 1.07175L4.43907 78.6718C0.483075 80.6398 -1.12892 85.4418 0.839075 89.3978C1.48908 90.7058 2.48608 91.8098 3.71908 92.5918L297.879 275.152C299.152 275.941 300.621 276.357 302.119 276.352C303.493 276.348 304.843 275.99 306.039 275.312L451.239 193.072C455.039 190.817 456.291 185.909 454.037 182.11ZM302.599 259.312L24.1991 86.2718L153.559 17.0718L431.479 185.952L302.599 259.312Z" transform="translate(0.0183105)" fill="#7B965A"/>
<path d="M454.217 104.457C452.008 100.613 447.101 99.2884 443.257 101.497H443.737L302.697 181.497L12.3774 1.25739C8.6214 -1.12861 3.6434 -0.0186105 1.2574 3.73739C-1.1286 7.49339 -0.018604 12.4714 3.7374 14.8574L297.897 197.417C299.17 198.206 300.639 198.622 302.137 198.617C303.511 198.613 304.861 198.255 306.057 197.577L451.257 115.417C455.101 113.208 456.426 108.301 454.217 104.457Z" transform="translate(0 116.614)" fill="#7B965A"/>
<path d="M452.511 104.173C450.419 101.556 446.917 100.519 443.737 101.577L302.297 181.577L12.3774 1.2574C8.6214 -1.1286 3.6434 -0.0186055 1.2574 3.73739C-1.1286 7.49339 -0.018604 12.4714 3.7374 14.8574L297.897 197.577C299.17 198.366 300.639 198.782 302.137 198.777C303.511 198.773 304.861 198.415 306.057 197.737L451.257 115.417C454.708 112.658 455.27 107.624 452.511 104.173Z" transform="translate(0 155.494)" fill="#7B965A"/>
<path d="M93.3008 2.99337C90.5358 -0.452631 85.4998 -1.00463 82.0548 1.76137C81.8368 1.93637 81.6278 2.12338 81.4288 2.32038L72.8688 10.3204C70.1908 7.91438 67.1718 5.91938 63.9088 4.40038C59.6468 2.39338 54.9088 1.61738 50.2288 2.16038C46.0958 2.67038 42.2168 4.42937 39.1088 7.20037C35.8918 9.90737 33.7608 13.6864 33.1088 17.8404C32.5488 22.2074 33.0138 26.6444 34.4688 30.8004C35.6578 34.2384 37.0468 37.6044 38.6288 40.8804L22.6288 55.2004C22.4358 54.6504 22.2758 54.0894 22.1488 53.5204C21.5458 49.6674 21.9598 45.7244 23.3488 42.0804C24.0048 40.3644 24.3828 38.5554 24.4688 36.7204C24.3978 34.9404 23.6538 33.2544 22.3888 32.0004C20.9538 30.2254 18.8288 29.1484 16.5488 29.0404C14.3748 28.8984 12.2368 29.6494 10.6288 31.1204C7.95881 33.6614 6.18981 37.0034 5.58881 40.6404C4.80081 45.4304 5.29782 50.3444 7.02882 54.8804C8.22582 58.2814 9.86681 61.5094 11.9088 64.4804L2.70881 72.4804C-0.605191 75.4024 -0.922191 80.4584 1.99981 83.7724C3.53481 85.5124 5.74881 86.5004 8.06881 86.4804L7.90881 86.7204C9.88081 86.7374 11.7898 86.0254 13.2688 84.7204L22.3088 76.7204C25.3138 79.5464 28.6758 81.9674 32.3088 83.9204C41.5528 89.1564 53.1388 87.6914 60.7888 80.3204C63.4778 77.9754 65.3538 74.8384 66.1488 71.3604C66.9338 67.4364 66.7968 63.3824 65.7488 59.5204C64.3048 54.1904 62.2088 49.0584 59.5088 44.2404V43.7604L72.7888 31.8404C73.1768 34.0094 73.1768 36.2314 72.7888 38.4004C72.3188 40.8244 72.1048 43.2914 72.1488 45.7604C72.2368 47.7084 73.0328 49.5584 74.3888 50.9604C75.9008 52.8964 78.1128 54.1614 80.5488 54.4804C82.6958 54.6004 84.8008 53.8504 86.3888 52.4004C88.0998 50.7814 89.2958 48.6944 89.8288 46.4004C90.4328 43.4714 90.4328 40.4494 89.8288 37.5204C89.1618 33.7424 87.8918 30.0964 86.0688 26.7204C85.2428 25.1794 84.3348 23.6844 83.3488 22.2404L92.0688 14.2404C95.5148 11.4744 96.0668 6.43837 93.3008 2.99337ZM44.1488 68.0794C42.0628 69.6414 39.3458 70.0894 36.8688 69.2794C35.2718 68.8754 33.7558 68.1984 32.3888 67.2794L45.9088 55.5194C46.4908 56.9984 46.9448 58.5234 47.2688 60.0794C47.7558 63.1144 46.5618 66.1754 44.1488 68.0794ZM52.0688 28.8794C51.6938 27.6554 51.4528 26.3954 51.3488 25.1194C50.9738 22.9434 51.7628 20.7294 53.4288 19.2794C55.3158 17.6884 57.9108 17.2304 60.2288 18.0794C61.0318 18.3544 61.8088 18.7024 62.5488 19.1194L52.0688 28.8794Z" transform="translate(180.389 92.1924)" fill="#7B965A"/>
</svg>
