<svg width="415" height="415" viewBox="0 0 415 415" fill="none" xmlns="http://www.w3.org/2000/svg">
<path d="M342.804 128.931L411.924 59.8106C415.063 56.7016 415.088 51.6366 411.979 48.4966C410.542 47.0456 408.605 46.1986 406.564 46.1306L406.804 46.6106L369.204 45.3306L367.924 7.73064C367.775 3.31464 364.075 -0.144361 359.659 0.00463856C357.618 0.0736386 355.68 0.919639 354.244 2.37064L285.204 71.0906C283.646 72.6586 282.806 74.8016 282.884 77.0106V85.0106C200.799 28.4636 88.4171 49.1666 31.8701 131.251C-24.6769 213.335 -3.97491 325.718 78.1101 382.265C160.194 438.812 272.577 418.109 329.124 336.025C371.595 274.374 371.595 192.903 329.124 131.251H337.124C339.25 131.263 341.294 130.428 342.804 128.931ZM345.204 233.731C345.324 324.659 271.709 398.468 180.781 398.588C89.8531 398.708 16.0441 325.093 15.9241 234.165C15.8041 143.237 89.4191 69.4276 180.347 69.3076C217.996 69.2576 254.524 82.1136 283.844 105.731L284.244 119.091L252.244 151.091C206.723 111.194 137.478 115.754 97.5811 161.275C57.6841 206.796 62.2441 276.041 107.765 315.938C153.286 355.835 222.531 351.275 262.428 305.754C298.274 264.854 298.707 203.855 263.444 162.451L295.444 130.451L308.644 130.931C332.172 160.04 345.068 196.303 345.204 233.731ZM175.444 239.091C178.564 242.193 183.604 242.193 186.724 239.091L202.724 223.091C204.283 226.309 205.103 229.835 205.124 233.411C205.124 246.666 194.379 257.411 181.124 257.411C167.869 257.411 157.124 246.666 157.124 233.411C157.124 220.156 167.869 209.411 181.124 209.411C184.7 209.432 188.226 210.252 191.444 211.811L175.444 227.811C172.342 230.931 172.342 235.971 175.444 239.091ZM203.124 200.051C184.702 187.859 159.884 192.909 147.692 211.331C135.5 229.753 140.55 254.571 158.972 266.763C177.394 278.955 202.212 273.905 214.404 255.483C223.262 242.098 223.262 224.715 214.404 211.331L252.324 173.411C285.567 212.883 280.516 271.83 241.044 305.073C201.572 338.316 142.625 333.265 109.382 293.793C76.1391 254.321 81.1901 195.374 120.662 162.131C155.444 132.839 206.262 132.839 241.044 162.131L203.124 200.051ZM300.404 114.131L299.284 80.0506L352.884 26.4506L353.764 53.0906C353.764 57.5086 357.346 61.0906 361.764 61.0906L388.404 61.9706L334.484 115.251L300.404 114.131Z" fill="#7B965A"/>
</svg>
