<svg width="529" height="181" viewBox="0 0 529 181" fill="none" xmlns="http://www.w3.org/2000/svg">
<path d="M181.106 67.7957L113.27 0L90.5391 22.718L67.8354 0L0 67.7957L22.7313 90.5138L0 113.204L67.8354 181L90.5667 158.282L113.298 181L181.106 113.204L158.374 90.4862L181.106 67.7957ZM156.968 90.4862L90.5391 156.876L24.1382 90.4862L90.5391 24.1241L156.968 90.4862Z" fill="#FA8C00"/>
<path d="M281.024 146.123C273.798 146.359 266.597 145.138 259.853 142.533C253.108 139.928 246.958 135.992 241.769 130.96C231.396 120.85 226.21 107.727 226.21 91.589C225.965 84.3213 227.236 77.0821 229.943 70.3323C232.65 63.5826 236.734 57.47 241.934 52.3839C247.097 47.3572 253.218 43.4177 259.932 40.7987C266.647 38.1798 273.819 36.9347 281.024 37.1374C288.211 36.9496 295.363 38.2019 302.057 40.8204C308.752 43.4389 314.854 47.3707 320.004 52.3839C325.206 57.4787 329.289 63.6013 331.992 70.3611C334.694 77.1208 335.958 84.3693 335.701 91.6442C335.993 103.908 332.102 115.906 324.666 125.666L337.191 138.183L320.997 154.257L306.845 140.251C298.817 144.202 289.973 146.214 281.024 146.123V146.123ZM258.128 114.445C261.155 117.379 264.743 119.675 268.676 121.195C272.61 122.716 276.809 123.43 281.024 123.295C285.237 123.431 289.432 122.707 293.355 121.167C297.277 119.627 300.844 117.303 303.837 114.337C306.83 111.372 309.186 107.828 310.761 103.921C312.336 100.014 313.097 95.8274 312.997 91.6166C313.153 87.3927 312.429 83.1826 310.871 79.2529C309.314 75.3233 306.956 71.7598 303.949 68.7883C300.921 65.8541 297.334 63.5585 293.4 62.0381C289.467 60.5177 285.267 59.8035 281.052 59.9382C276.842 59.8021 272.649 60.5255 268.728 62.064C264.808 63.6025 261.242 65.9239 258.25 68.8863C255.257 71.8487 252.9 75.3898 251.324 79.2933C249.747 83.1968 248.983 87.3806 249.079 91.589C248.92 95.8175 249.642 100.033 251.199 103.968C252.757 107.902 255.116 111.47 258.128 114.445Z" fill="black"/>
<path d="M529 40.0323V62.8607H500.669V143.173H477.827V62.8607H449.661V40.0323H529Z" fill="black"/>
<path d="M433.385 90.3208C438.097 84.5995 440.551 77.3518 440.282 69.9463C440.435 65.8869 439.697 61.8433 438.12 58.0995C436.542 54.3557 434.163 51.0026 431.15 48.2759C424.542 42.5801 416.006 39.6215 407.288 40.0048H350.046V143.173H411.454C420.175 143.576 428.717 140.615 435.316 134.902C438.342 132.145 440.728 128.759 442.306 124.982C443.883 121.205 444.614 117.128 444.447 113.039C444.346 108.68 443.305 104.394 441.396 100.474C439.487 96.5533 436.755 93.0903 433.385 90.3208ZM372.888 62.7504H405.523C413.467 62.7504 417.44 65.7004 417.44 71.6005C417.44 77.5006 413.467 80.3863 405.523 80.2576H372.86L372.888 62.7504ZM409.55 120.207H372.86V102.948H409.523C417.578 102.948 421.606 105.843 421.606 111.633C421.606 117.423 417.587 120.317 409.55 120.317V120.207Z" fill="black"/>
</svg>
