<?xml version="1.0" encoding="utf-8"?>
<!-- Generator: Adobe Illustrator 18.1.1, SVG Export Plug-In . SVG Version: 6.00 Build 0)  -->
<svg version="1.2" baseProfile="tiny" id="Layer_1" xmlns="http://www.w3.org/2000/svg" xmlns:xlink="http://www.w3.org/1999/xlink"
	 x="0px" y="0px" viewBox="0 0 300 48.3" xml:space="preserve">
<g>
	<path fill="#6B3E94" d="M23.8,0.3V31c0,2.2,0,4.8,0.2,6.5h-4.1l-0.2-4.4h-0.1c-1.4,2.8-4.4,5-8.6,5C4.8,38.1,0,32.9,0,25.2
		c0-8.5,5.2-13.6,11.4-13.6c3.9,0,6.6,1.8,7.7,3.8h0.1V0.3H23.8z M19.1,22.5c0-0.6-0.1-1.4-0.2-2c-0.7-2.9-3.2-5.3-6.7-5.3
		c-4.8,0-7.6,4.2-7.6,9.8c0,5.2,2.6,9.4,7.5,9.4c3.1,0,5.9-2.1,6.7-5.5c0.2-0.6,0.2-1.3,0.2-2V22.5z"/>
	<path fill="#6B3E94" d="M47.9,31.5c0,2.2,0.1,4.4,0.4,6.1h-4.1l-0.4-3.2h-0.2c-1.4,2-4.1,3.8-7.8,3.8c-5.1,0-7.7-3.6-7.7-7.3
		c0-6.1,5.4-9.5,15.2-9.4v-0.5c0-2.1-0.6-5.9-5.8-5.9c-2.4,0-4.9,0.7-6.7,1.9l-1.1-3.1c2.1-1.3,5.2-2.2,8.4-2.2
		c7.8,0,9.7,5.3,9.7,10.4V31.5z M43.4,24.6c-5-0.1-10.7,0.8-10.7,5.7c0,3,2,4.4,4.3,4.4c3.4,0,5.5-2.1,6.2-4.2
		c0.2-0.5,0.2-1,0.2-1.5V24.6z"/>
	<path fill="#00A7CE" d="M65.6,12.2l5,14.2c0.8,2.4,1.5,4.5,2,6.6h0.2c0.6-2.1,1.3-4.2,2.1-6.6l4.9-14.2h4.8l-10,25.4h-4.4
		l-9.6-25.4H65.6z"/>
	<path fill="#00A7CE" d="M89.9,6.3c-1.7,0-2.9-1.4-2.9-3c0-1.6,1.2-2.9,3-2.9c1.8,0,2.9,1.3,2.9,2.9C93,4.9,91.8,6.3,89.9,6.3
		L89.9,6.3z M87.7,12.2h4.6v25.4h-4.6V12.2z"/>
	<path fill="#00A7CE" d="M98.7,19c0-2.7,0-4.8-0.2-6.9h4.1l0.3,4.1h0.1c1.3-2.4,4.2-4.7,8.4-4.7c3.5,0,9,2.1,9,10.8v15.2h-4.6V22.9
		c0-4.1-1.5-7.6-5.9-7.6c-3,0-5.4,2.1-6.2,4.7c-0.2,0.6-0.3,1.4-0.3,2.2v15.3h-4.6V19z"/>
	<path fill="#00A7CE" d="M144.6,36.7c-1.2,0.6-3.9,1.5-7.3,1.5c-7.6,0-12.6-5.2-12.6-13c0-7.8,5.3-13.5,13.6-13.5
		c2.7,0,5.1,0.7,6.4,1.4l-1.1,3.5c-1.1-0.6-2.8-1.2-5.4-1.2c-5.8,0-9,4.3-9,9.6c0,5.9,3.8,9.5,8.8,9.5c2.6,0,4.4-0.6,5.7-1.2
		L144.6,36.7z"/>
	<path fill="#00AFDB" d="M150.9,6.3c-1.7,0-2.9-1.4-2.9-3c0-1.6,1.2-2.9,3-2.9c1.8,0,2.9,1.3,2.9,2.9C153.9,4.9,152.7,6.3,150.9,6.3
		L150.9,6.3z M148.7,12.2h4.6v25.4h-4.6V12.2z"/>
	<path fill="#646569" d="M186.2,36.9c-1.2,0.6-3.9,1.5-7.4,1.5c-7.8,0-12.8-5.2-12.8-13.2c0-7.9,5.4-13.7,13.8-13.7
		c2.8,0,5.2,0.7,6.5,1.4l-1.1,3.6c-1.1-0.6-2.9-1.2-5.4-1.2c-5.9,0-9.1,4.4-9.1,9.8c0,6,3.8,9.6,8.9,9.6c2.7,0,4.4-0.6,5.7-1.2
		L186.2,36.9z"/>
	<path fill="#646569" d="M208.5,31.6c0,2.2,0.1,4.4,0.4,6.2h-4.2l-0.4-3.2h-0.1c-1.4,2-4.2,3.8-7.9,3.8c-5.2,0-7.9-3.6-7.9-7.4
		c0-6.2,5.5-9.6,15.5-9.6v-0.5c0-2.1-0.6-6-5.8-6c-2.4,0-5,0.7-6.8,1.9l-1.1-3.1c2.1-1.3,5.3-2.2,8.5-2.2c7.9,0,9.8,5.4,9.8,10.5
		V31.6z M204,24.6c-5.1-0.1-10.9,0.8-10.9,5.8c0,3.1,2,4.5,4.4,4.5c3.4,0,5.6-2.1,6.3-4.3c0.2-0.5,0.2-1,0.2-1.5V24.6z"/>
	<path fill="#646569" d="M214.7,20.4c0-3.3,0-6-0.2-8.4h4.2l0.3,4.4h0.1c1.9-3.2,4.9-5,9.1-5c6.3,0,11,5.3,11,13.1
		c0,9.3-5.7,13.8-11.7,13.8c-3.5,0-6.4-1.5-7.9-4h-0.1v14h-4.7V20.4z M219.4,27.3c0,0.6,0.1,1.3,0.2,1.9c0.8,3.2,3.7,5.5,7,5.5
		c4.9,0,7.8-4,7.8-10c0-5.2-2.7-9.6-7.6-9.6c-3.2,0-6.2,2.2-7.1,5.7c-0.1,0.6-0.3,1.3-0.3,1.9V27.3z"/>
	<path fill="#646569" d="M245.9,7.3c-1.7,0-2.9-1.4-2.9-3c0-1.6,1.2-3,3-3c1.8,0,3,1.3,3,3C248.9,5.9,247.8,7.3,245.9,7.3L245.9,7.3
		z M243.6,12h4.7v25.7h-4.7V12z"/>
	<path fill="#646569" d="M260.4,5.8V12h6.7v3.6h-6.7v13.9c0,3.2,0.9,5,3.5,5c1.3,0,2-0.1,2.7-0.3l0.2,3.6c-0.9,0.3-2.3,0.6-4.1,0.6
		c-2.2,0-3.9-0.7-5.1-2c-1.3-1.4-1.8-3.7-1.8-6.7v-14h-4V12h4V7.3L260.4,5.8z"/>
	<path fill="#646569" d="M289.1,31.6c0,2.2,0.1,4.4,0.4,6.2h-4.2l-0.4-3.2h-0.2c-1.4,2-4.2,3.8-7.9,3.8c-5.2,0-7.9-3.6-7.9-7.4
		c0-6.2,5.5-9.6,15.5-9.6v-0.5c0-2.1-0.6-6-5.8-6c-2.4,0-4.9,0.7-6.8,1.9l-1.1-3.1c2.1-1.3,5.3-2.2,8.5-2.2c7.9,0,9.8,5.4,9.8,10.5
		V31.6z M284.6,24.6c-5.1-0.1-10.9,0.8-10.9,5.8c0,3.1,2,4.5,4.4,4.5c3.4,0,5.6-2.1,6.3-4.3c0.2-0.5,0.2-1,0.2-1.5V24.6z"/>
	<rect x="295.3" y="0" fill="#646569" width="4.7" height="37.8"/>
</g>
</svg>
