<svg width="431" height="431" viewBox="0 0 431 431" fill="none" xmlns="http://www.w3.org/2000/svg">
<path d="M431 0H0V431H431V0Z" fill="#7B965A"/>
<path d="M168.312 104.914C168.312 114.012 168.312 154.617 168.312 154.617H132V215.393H168.312V396H242.906V215.398H292.961C292.961 215.398 297.649 186.257 299.921 154.393C293.406 154.393 243.188 154.393 243.188 154.393C243.188 154.393 243.188 119.035 243.188 112.837C243.188 106.626 251.32 98.2719 259.359 98.2719C267.382 98.2719 284.316 98.2719 300 98.2719C300 89.997 300 61.4057 300 35C279.062 35 255.242 35 244.742 35C166.468 34.9958 168.312 95.8328 168.312 104.914Z" fill="white"/>
</svg>
