<svg width="938" height="324" viewBox="0 0 938 324" fill="none" xmlns="http://www.w3.org/2000/svg">
<path d="M85.2 0H119.6V239.1H85.2V134.1H34.4V239.1H0V0H34.4V106.2H85.2V0Z" transform="translate(358.975 0.475098)" fill="white"/>
<path d="M103.1 239.1L93.6 183.7H43.2L34.4 239.1H0L42.4 0H92.4L137.9 239.1H103.1ZM47.3 155.8H88.9L67.1 29.8L47.3 155.8Z" transform="translate(508.074 0.575195)" fill="white"/>
<path d="M74.2 200.1V141.7C74.2 137.1 73.5 134.1 72.1 132.7C70.7 131.3 67.7 130.6 63.1 130.6H34.8C11.6 130.6 0 119.3 0 96.6V33.6C0 11.2 11.8 0 35.5 0H72.9C96.6 0 108.4 11.2 108.4 33.6V68.7H73.6V38.9C73.6 34.3 72.8 31.3 71.3 29.9C69.8 28.5 66.7 27.8 62.1 27.8H46.1C41.5 27.8 38.5 28.5 36.9 29.9C35.4 31.3 34.6 34.3 34.6 38.9V92C34.6 96.6 35.4 99.6 36.9 101C38.4 102.4 41.5 103.1 46.1 103.1H74C97.4 103.1 109.1 114.3 109.1 136.7V205.4C109.1 227.8 97.1 239 73.2 239H36.1C12.4 239 0.600037 227.8 0.600037 205.4V170.3H35.4V200.1C35.4 204.7 36.2 207.7 37.7 209.1C39.2 210.5 42.3 211.2 46.9 211.2H62.9C67.5 211.2 70.5 210.5 71.9 209.1C73.5 207.7 74.2 204.7 74.2 200.1Z" transform="translate(669.875 0.575195)" fill="white"/>
<path d="M85.2 0H119.6V239.1H85.2V134.1H34.4V239.1H0V0H34.4V106.2H85.2V0Z" transform="translate(818.074 0.475098)" fill="white"/>
<path d="M21.5 14.3H14.7V7.29999C14.7 6.39999 14.6 5.79998 14.3 5.59998C14 5.29998 13.5 5.19998 12.6 5.19998H8.89999C7.99999 5.19998 7.40001 5.29998 7.10001 5.59998C6.80001 5.89998 6.69998 6.39999 6.69998 7.29999V38.7C6.69998 39.6 6.80001 40.2 7.10001 40.4C7.40001 40.7 7.99999 40.8 8.89999 40.8H12.6C13.5 40.8 14.1 40.7 14.3 40.4C14.6 40.1 14.7 39.6 14.7 38.7V31.7H21.5V39.5C21.5 43.9 19.2 46 14.6 46H6.79999C2.19999 46 0 43.8 0 39.5V6.5C0 2.2 2.29999 0 6.79999 0H14.6C19.2 0 21.5 2.2 21.5 6.5V14.3Z" transform="translate(358.676 277.675)" fill="white"/>
<path d="M6.60001 27.4V46H0V0H15.1C19.7 0 21.9 2.2 21.9 6.5V20.9C21.9 24.6 20.3 26.7 17 27.3L24.3 46H17.2L10.3 27.4H6.60001V27.4ZM6.60001 5.39999V22.1H13.1C14 22.1 14.6 22 14.9 21.7C15.2 21.4 15.3 20.9 15.3 20V7.5C15.3 6.6 15.2 5.99999 14.9 5.79999C14.6 5.49999 14 5.39999 13.1 5.39999H6.60001V5.39999Z" transform="translate(387.676 277.575)" fill="white"/>
<path d="M16.5 45.9H9.79999V31.4L0 0H6.79999L13.2 25.3L19.2 0H26L16.6 31.4V45.9H16.5Z" transform="translate(414.176 277.675)" fill="white"/>
<path d="M0 0H15.1C19.7 0 21.9 2.2 21.9 6.5V21.8C21.9 26.1 19.6 28.3 15.1 28.3H6.70001V46.1H0.100006V0H0ZM15.3 20.7V7.5C15.3 6.6 15.2 5.99999 14.9 5.79999C14.6 5.49999 14 5.39999 13.1 5.39999H6.60001V22.9H13.1C14 22.9 14.6 22.8 14.9 22.5C15.2 22.2 15.3 21.6 15.3 20.7Z" transform="translate(445.076 277.575)" fill="white"/>
<path d="M22 0V5.39999H14.3V46H7.70001V5.39999H0V0H22Z" transform="translate(470.376 277.575)" fill="white"/>
<path d="M6.90002 0H15.1C19.7 0 21.9 2.2 21.9 6.5V39.5C21.9 43.8 19.6 46 15.1 46H6.90002C2.30002 46 0 43.8 0 39.5V6.5C0 2.2 2.30002 0 6.90002 0ZM15.3 38.5V7.5C15.3 6.6 15.2 5.99999 14.9 5.79999C14.6 5.49999 14 5.39999 13.1 5.39999H8.80005C7.90005 5.39999 7.30004 5.49999 7.10004 5.79999C6.80004 6.09999 6.70001 6.6 6.70001 7.5V38.5C6.70001 39.4 6.80004 40 7.10004 40.2C7.40004 40.5 7.90005 40.6 8.80005 40.6H13.1C14 40.6 14.6 40.5 14.9 40.2C15.1 40 15.3 39.4 15.3 38.5Z" transform="translate(497.176 277.575)" fill="white"/>
<path d="M0 0H6.59998V46H0V0Z" transform="translate(539.576 277.575)" fill="white"/>
<path d="M16.4 0H22.5V46H15.8L6.09998 12.8V46H0V0H7L16.4 32.2V0V0Z" transform="translate(555.275 277.575)" fill="white"/>
<path d="M19.2 0H26L17.7 46H8.29999L0 0H6.79999L12.9 39.9L19.2 0Z" transform="translate(582.876 277.575)" fill="white"/>
<path d="M6.70001 40.6H20V46H0V0H19.5V5.39999H6.70001V19.6H17.3V25H6.70001V40.6Z" transform="translate(614.076 277.575)" fill="white"/>
<path d="M14.2 38.4V27.2C14.2 26.3 14.1 25.7 13.8 25.5C13.5 25.2 13 25.1 12.1 25.1H6.70001C2.20001 25.1 0 22.9 0 18.6V6.5C0 2.2 2.29999 0 6.79999 0H14C18.6 0 20.8 2.2 20.8 6.5V13.3H14.1V7.59998C14.1 6.69998 14 6.09999 13.7 5.89999C13.4 5.59999 12.8 5.5 11.9 5.5H8.79999C7.89999 5.5 7.3 5.59999 7 5.89999C6.7 6.19999 6.59998 6.69998 6.59998 7.59998V17.8C6.59998 18.7 6.7 19.3 7 19.5C7.3 19.8 7.89999 19.9 8.79999 19.9H14.2C18.7 19.9 21 22.1 21 26.4V39.6C21 43.9 18.7 46.1 14.1 46.1H7C2.4 46.1 0.200012 43.9 0.200012 39.6V32.8H6.89996V38.5C6.89996 39.4 6.99999 40 7.29999 40.2C7.59999 40.5 8.19998 40.6 9.09998 40.6H12.2C13.1 40.6 13.7 40.5 13.9 40.2C14 39.9 14.2 39.3 14.2 38.4Z" transform="translate(639.275 277.675)" fill="white"/>
<path d="M22 0V5.39999H14.3V46H7.70001V5.39999H0V0H22Z" transform="translate(664.275 277.575)" fill="white"/>
<path d="M5.79999 46H0V0H7.29999L15.2 28.5L23.1 0H30.4V46H24.6V12.4L18.3 36H12.3L6 12.4V46H5.79999Z" transform="translate(691.376 277.575)" fill="white"/>
<path d="M6.70001 40.6H20V46H0V0H19.5V5.39999H6.70001V19.6H17.3V25H6.70001V40.6Z" transform="translate(730.176 277.575)" fill="white"/>
<path d="M16.4 0H22.5V46H15.8L6.10004 12.8V46H0V0H7L16.4 32.2V0V0Z" transform="translate(756.376 277.575)" fill="white"/>
<path d="M22 0V5.39999H14.3V46H7.69995V5.39999H0V0H22Z" transform="translate(783.976 277.575)" fill="white"/>
<path d="M0 0H15.9C20.5 0 22.8 2.2 22.8 6.5V18.2C22.8 20.8 21.8 22.3 19.9 22.8C21.9 23.3 22.8 24.7 22.8 27.1V39.7C22.8 44 20.5 46.2 15.9 46.2H0V0ZM16.1 17.9V7.39999C16.1 6.49999 16 5.89998 15.7 5.69998C15.4 5.39998 14.8 5.29999 13.9 5.29999H6.59998V20.1H13.9C14.8 20.1 15.4 20 15.7 19.7C16 19.3 16.1 18.8 16.1 17.9ZM16.1 38.7V27.4C16.1 26.5 16 25.9 15.7 25.7C15.4 25.4 14.8 25.3 13.9 25.3H6.59998V40.9H13.9C14.8 40.9 15.4 40.8 15.7 40.5C16 40.1 16.1 39.5 16.1 38.7Z" transform="translate(822.775 277.575)" fill="white"/>
<path d="M19.8 46L18 35.4H8.29999L6.59998 46H0L8.20001 0H17.8L26.5 46H19.8ZM9.09998 30H17.1L12.9 5.79999L9.09998 30Z" transform="translate(850.775 277.575)" fill="white"/>
<path d="M16.4 0H22.5V46H15.8L6.10004 12.8V46H0V0H7L16.4 32.2V0V0Z" transform="translate(882.876 277.575)" fill="white"/>
<path d="M0 46V0H6.59998V46H0ZM23.7 0L14 23.1L23.6 46H16.4L7.09998 23.1L16.6 0H23.7Z" transform="translate(913.976 277.575)" fill="white"/>
<path d="M68.775 25.075L172.675 128.975L193.775 107.875L89.875 3.975C84.575 -1.325 75.875 -1.325 70.575 3.975L68.775 5.775C63.475 11.075 63.475 19.675 68.775 25.075ZM263.675 89.875C268.975 84.575 268.975 75.875 263.675 70.575L261.875 68.775C256.575 63.475 247.875 63.475 242.575 68.775L138.675 172.675L159.775 193.775L263.675 89.875ZM198.875 25.075C204.175 19.775 204.175 11.075 198.875 5.775L197.075 3.975C191.775 -1.325 183.075 -1.325 177.775 3.975L138.675 43.075L159.775 64.175L198.875 25.075ZM5.775 68.775L3.975 70.575C-1.325 75.875 -1.325 84.575 3.975 89.875L43.175 128.975L64.275 107.875L25.075 68.775C19.775 63.375 11.075 63.375 5.775 68.775ZM198.875 242.575L94.975 138.575L73.875 159.675L177.775 263.575C183.075 268.875 191.775 268.875 197.075 263.575L198.875 261.775C204.175 256.475 204.175 247.875 198.875 242.575ZM263.675 177.775L224.575 138.675L203.475 159.775L242.575 198.875C247.875 204.175 256.575 204.175 261.875 198.875L263.675 197.075C268.975 191.775 268.975 183.075 263.675 177.775ZM3.975 177.775C-1.325 183.075 -1.325 191.775 3.975 197.075L5.775 198.875C11.075 204.175 19.775 204.175 25.075 198.875L128.975 94.975L107.875 73.875L3.975 177.775ZM68.775 242.575C63.475 247.875 63.475 256.575 68.775 261.875L70.575 263.675C75.875 268.975 84.575 268.975 89.875 263.675L128.975 224.575L107.875 203.475L68.775 242.575Z" fill="white"/>
</svg>
