<?xml version="1.0" encoding="utf-8"?>
<!-- Generator: Adobe Illustrator 22.1.0, SVG Export Plug-In . SVG Version: 6.00 Build 0)  -->
<svg version="1.1" id="Layer_1" xmlns="http://www.w3.org/2000/svg" xmlns:xlink="http://www.w3.org/1999/xlink" x="0px" y="0px"
	 viewBox="0 0 1024 374" style="enable-background:new 0 0 1024 374;" xml:space="preserve">
<style type="text/css">
	.st0{enable-background:new    ;}
	.st1{fill:#6067EF;}
</style>
<g class="st0">
	<path d="M477.6,69.5H512v239.1h-34.4v-105h-50.8v105h-34.4V69.5h34.4v106.2h50.8V69.5z"/>
	<path d="M644.6,308.7l-9.5-55.4h-50.4l-8.8,55.4h-34.4l42.4-239.1h50l45.5,239.1H644.6z M588.8,225.4h41.6l-21.8-126L588.8,225.4z"
		/>
	<path d="M777.5,269.7v-58.4c0-4.6-0.7-7.6-2.1-9c-1.4-1.4-4.4-2.1-9-2.1h-28.3c-23.2,0-34.8-11.3-34.8-34v-63
		c0-22.4,11.8-33.6,35.5-33.6h37.4c23.7,0,35.5,11.2,35.5,33.6v35.1h-34.8v-29.8c0-4.6-0.8-7.6-2.3-9c-1.5-1.4-4.6-2.1-9.2-2.1h-16
		c-4.6,0-7.6,0.7-9.2,2.1c-1.5,1.4-2.3,4.4-2.3,9v53.1c0,4.6,0.8,7.6,2.3,9c1.5,1.4,4.6,2.1,9.2,2.1h27.9
		c23.4,0,35.1,11.2,35.1,33.6V275c0,22.4-12,33.6-35.9,33.6h-37.1c-23.7,0-35.5-11.2-35.5-33.6v-35.1h34.8v29.8c0,4.6,0.8,7.6,2.3,9
		c1.5,1.4,4.6,2.1,9.2,2.1h16c4.6,0,7.6-0.7,9-2.1C776.8,277.3,777.5,274.3,777.5,269.7z"/>
	<path d="M936.7,69.5h34.4v239.1h-34.4v-105h-50.8v105h-34.4V69.5h34.4v106.2h50.8V69.5z"/>
</g>
<path class="st1" d="M102.2,78.1L206.1,182l21.1-21.1L123.3,57c-5.3-5.3-14-5.3-19.3,0l-1.8,1.8C96.9,64.1,96.9,72.7,102.2,78.1z
	 M297.1,142.9c5.3-5.3,5.3-14,0-19.3l-1.8-1.8c-5.3-5.3-14-5.3-19.3,0L172.1,225.7l21.1,21.1L297.1,142.9z M232.3,78.1
	c5.3-5.3,5.3-14,0-19.3l-1.8-1.8c-5.3-5.3-14-5.3-19.3,0l-39.1,39.1l21.1,21.1L232.3,78.1z M39.2,121.8l-1.8,1.8
	c-5.3,5.3-5.3,14,0,19.3L76.6,182l21.1-21.1l-39.1-39.1C53.2,116.4,44.5,116.4,39.2,121.8z M232.3,295.6l-103.9-104l-21.1,21.1
	l103.9,103.9c5.3,5.3,14,5.3,19.3,0l1.8-1.8C237.6,309.5,237.6,300.9,232.3,295.6z M297.1,230.8L258,191.7l-21.1,21.1l39.1,39.1
	c5.3,5.3,14,5.3,19.3,0l1.8-1.8C302.4,244.8,302.4,236.1,297.1,230.8z M37.4,230.8c-5.3,5.3-5.3,14,0,19.3l1.8,1.8
	c5.3,5.3,14,5.3,19.3,0L162.4,148l-21.1-21.1L37.4,230.8z M102.2,295.6c-5.3,5.3-5.3,14,0,19.3l1.8,1.8c5.3,5.3,14,5.3,19.3,0
	l39.1-39.1l-21.1-21.1L102.2,295.6z"/>
</svg>
