<svg width="431" height="431" viewBox="0 0 431 431" fill="none" xmlns="http://www.w3.org/2000/svg">
<path d="M431 0H0V431H431V0Z" fill="#7B965A"/>
<path d="M386 251.87V378H312.698V260.318C312.698 230.755 302.096 210.58 275.563 210.58C255.309 210.58 243.255 224.176 237.953 237.329C236.019 242.031 235.521 248.575 235.521 255.157V378H162.195C162.195 378 163.182 178.685 162.195 158.034H235.514V189.214C235.365 189.447 235.172 189.698 235.032 189.924H235.514V189.214C245.255 174.247 262.652 152.867 301.591 152.867C349.834 152.866 386 184.305 386 251.87ZM85.4924 52C60.4076 52 44 68.4133 44 89.9975C44 111.111 59.9329 128.023 84.5192 128.023H85.009C110.58 128.023 126.482 111.114 126.482 89.9975C126 68.4133 110.58 52 85.4924 52ZM48.3549 378H121.653V158.034H48.3549V378Z" fill="white"/>
</svg>
