<svg width="431" height="431" viewBox="0 0 431 431" fill="none" xmlns="http://www.w3.org/2000/svg">
<path d="M431 0H0V431H431V0Z" fill="#12100E"/>
<path d="M102.852 144.143C103.212 140.589 101.857 137.076 99.2025 134.684L72.1677 102.116V97.2512H156.111L220.995 239.55L278.038 97.2512H358.062V102.116L334.947 124.278C332.954 125.797 331.965 128.294 332.378 130.765V293.604C331.965 296.075 332.954 298.572 334.947 300.091L357.521 322.253V327.118H243.974V322.253L267.36 299.55C269.657 297.253 269.657 296.577 269.657 293.064V161.441L204.639 326.577H195.852L120.155 161.441V272.117C119.523 276.771 121.069 281.455 124.345 284.82L154.759 321.712V326.577H68.5179V321.712L98.9322 284.82C102.184 281.45 103.64 276.734 102.852 272.117V144.143Z" fill="white"/>
</svg>
