<svg width="539" height="431" viewBox="0 0 539 431" fill="none" xmlns="http://www.w3.org/2000/svg">
<path d="M538.75 63.5557H517.495C509.498 63.5557 498.344 75.0251 498.344 82.3909V349.977C498.344 357.448 509.498 367.444 517.495 367.444H538.75V431H345.663V367.444H386.069V86.179H384.175L289.789 431H216.763L123.534 86.179H121.219V367.444H161.625V431H0V367.444H20.7292C29.2524 367.444 40.4062 357.448 40.4062 349.977V82.3909C40.4062 75.0251 29.2524 63.5557 20.7292 63.5557H0V0H202.136L268.428 249.488H270.322L337.245 0H538.75V63.5557Z" fill="#7B965A"/>
</svg>
