<svg width="431" height="431" viewBox="0 0 431 431" fill="none" xmlns="http://www.w3.org/2000/svg">
<path d="M431 0H0V431H431V0Z" fill="#7B965A"/>
<path d="M83.7918 134.691C84.2192 130.47 82.6088 126.298 79.4556 123.457L47.3361 84.7778V79H147.067L224.154 248L291.926 79H387V84.7778L359.538 111.099C357.17 112.903 355.996 115.868 356.486 118.802V312.198C355.996 315.132 357.17 318.097 359.538 319.901L386.358 346.222V352H251.456V346.222L279.239 319.259C281.969 316.531 281.969 315.728 281.969 311.556V155.235L204.722 351.358H194.283L104.348 155.235V286.679C103.598 292.205 105.434 297.769 109.327 301.765L145.461 345.58V351.358H43V345.58L79.1345 301.765C82.9984 297.762 84.7274 292.162 83.7918 286.679V134.691Z" fill="white"/>
</svg>
