<svg width="431" height="431" viewBox="0 0 431 431" fill="none" xmlns="http://www.w3.org/2000/svg">
<path d="M431 0H0V431H431V0Z" fill="#7B965A"/>
<path d="M392 105.095C379.015 110.874 365.048 114.783 350.4 116.53C365.357 107.534 376.834 93.3012 382.251 76.3139C368.257 84.647 352.751 90.6937 336.261 93.952C323.05 79.8268 304.228 71 283.385 71C243.396 71 210.963 103.56 210.963 143.706C210.963 149.404 211.606 154.952 212.848 160.277C152.658 157.245 99.2916 128.301 63.5699 84.3004C57.3367 95.0357 53.7615 107.534 53.7615 120.857C53.7615 146.075 66.5561 168.34 85.9784 181.374C74.1125 181.001 62.9371 177.731 53.178 172.27C53.1724 172.58 53.1724 172.888 53.1724 173.192C53.1724 208.421 78.1472 237.803 111.272 244.478C105.201 246.149 98.7899 247.031 92.1946 247.031C87.5173 247.031 82.9865 246.581 78.5685 245.735C87.7822 274.614 114.523 295.636 146.221 296.228C121.431 315.732 90.2075 327.351 56.2671 327.351C50.4342 327.351 44.6549 327.009 39 326.331C71.0333 346.969 109.111 359 150.008 359C283.217 359 356.067 248.214 356.067 152.126C356.067 148.977 355.996 145.836 355.856 142.725C370.017 132.476 382.294 119.674 392 105.095Z" fill="#F1F2F2"/>
</svg>
