<svg width="431" height="431" viewBox="0 0 431 431" fill="none" xmlns="http://www.w3.org/2000/svg">
<path d="M215.001 429.996C333.741 429.996 429.999 333.738 429.999 214.998C429.999 96.2579 333.741 0 215.001 0C96.2611 0 0.00317383 96.2579 0.00317383 214.998C0.00317383 333.738 96.2611 429.996 215.001 429.996Z" fill="#7B965A"/>
<path d="M346.696 154.513C337.482 158.598 327.571 161.361 317.177 162.596C327.79 156.237 335.934 146.177 339.778 134.17C329.848 140.06 318.845 144.334 307.144 146.637C297.769 136.653 284.413 130.414 269.623 130.414C241.247 130.414 218.233 153.428 218.233 181.804C218.233 185.832 218.689 189.753 219.57 193.517C176.86 191.374 138.991 170.916 113.643 139.815C109.22 147.403 106.683 156.237 106.683 165.654C106.683 183.479 115.762 199.216 129.544 208.429C121.124 208.165 113.194 205.854 106.269 201.994C106.265 202.213 106.265 202.431 106.265 202.646C106.265 227.546 123.987 248.314 147.492 253.032C143.184 254.213 138.635 254.837 133.955 254.837C130.636 254.837 127.421 254.519 124.286 253.921C130.824 274.333 149.799 289.192 172.292 289.61C154.701 303.396 132.545 311.609 108.461 311.609C104.322 311.609 100.221 311.367 96.2083 310.888C118.939 325.475 145.959 333.979 174.979 333.979C269.504 333.979 321.198 255.673 321.198 187.756C321.198 185.53 321.148 183.31 321.048 181.111C331.097 173.867 339.809 164.818 346.696 154.513Z" fill="#F1F2F2"/>
</svg>
