<svg width="431" height="431" viewBox="0 0 431 431" fill="none" xmlns="http://www.w3.org/2000/svg">
<g clip-path="url(#clip0)">
<path d="M214.998 429.989C333.736 429.989 429.992 333.733 429.992 214.995C429.992 96.2564 333.736 0 214.998 0C96.2595 0 0.00317383 96.2564 0.00317383 214.995C0.00317383 333.733 96.2595 429.989 214.998 429.989Z" fill="black"/>
<path d="M346.69 154.51C337.477 158.596 327.566 161.359 317.172 162.593C327.785 156.235 335.929 146.175 339.773 134.167C329.843 140.058 318.839 144.331 307.139 146.635C297.765 136.651 284.408 130.412 269.619 130.412C241.243 130.412 218.229 153.426 218.229 181.801C218.229 185.829 218.685 189.75 219.567 193.513C176.858 191.371 138.989 170.913 113.641 139.813C109.218 147.401 106.681 156.235 106.681 165.651C106.681 183.476 115.76 199.212 129.542 208.426C121.122 208.161 113.192 205.85 106.267 201.991C106.263 202.209 106.263 202.428 106.263 202.642C106.263 227.542 123.985 248.31 147.489 253.028C143.182 254.208 138.632 254.833 133.953 254.833C130.634 254.833 127.419 254.515 124.284 253.917C130.822 274.329 149.796 289.188 172.289 289.605C154.698 303.391 132.543 311.604 108.459 311.604C104.32 311.604 100.219 311.362 96.2068 310.883C118.937 325.47 145.956 333.974 174.976 333.974C269.5 333.974 321.193 255.669 321.193 187.753C321.193 185.527 321.143 183.308 321.043 181.108C331.092 173.864 339.803 164.816 346.69 154.51Z" fill="#F1F2F2"/>
</g>
<defs>
<clipPath id="clip0">
<rect width="429.993" height="429.993" fill="white"/>
</clipPath>
</defs>
</svg>
