<svg width="111" height="40" viewBox="0 0 111 40" fill="none" xmlns="http://www.w3.org/2000/svg">
<path d="M9.99486 0H14.0303V28.049H9.99486V15.7314H4.03548V28.049H0V0H4.03548V12.4584H9.99486V0Z" transform="translate(42.1133 1.93262)" fill="black"/>
<path d="M12.0947 28.049L10.9803 21.55H5.06782L4.03549 28.049H0L4.97397 0H10.8395L16.1771 28.049H12.0947ZM5.54879 18.277H10.4289L7.87154 3.49586L5.54879 18.277Z" transform="translate(59.6035 1.94482)" fill="black"/>
<path d="M8.70445 23.4739V16.6229C8.70445 16.0833 8.62233 15.7314 8.4581 15.5671C8.29386 15.4029 7.94193 15.3208 7.4023 15.3208H4.08241C1.3608 15.3208 0 13.9952 0 11.3322V3.94164C0 1.31388 1.38426 0 4.16453 0H8.55194C11.3322 0 12.7165 1.31388 12.7165 3.94164V8.05924H8.63406V4.56338C8.63406 4.02375 8.54021 3.67182 8.36424 3.50759C8.18828 3.34335 7.82462 3.26123 7.28499 3.26123H5.40802C4.86839 3.26123 4.51646 3.34335 4.32876 3.50759C4.1528 3.67182 4.05895 4.02375 4.05895 4.56338V10.7926C4.05895 11.3322 4.1528 11.6841 4.32876 11.8484C4.50473 12.0126 4.86839 12.0947 5.40802 12.0947H8.68098C11.4261 12.0947 12.7986 13.4086 12.7986 16.0364V24.0956C12.7986 26.7234 11.3909 28.0372 8.58714 28.0372H4.23492C1.45466 28.0372 0.0703907 26.7234 0.0703907 24.0956V19.978H4.1528V23.4739C4.1528 24.0135 4.24664 24.3654 4.42261 24.5296C4.59858 24.6939 4.96224 24.776 5.50187 24.776H7.37884C7.91847 24.776 8.2704 24.6939 8.43463 24.5296C8.62233 24.3654 8.70445 24.0135 8.70445 23.4739Z" transform="translate(78.584 1.94482)" fill="black"/>
<path d="M9.99486 0H14.0303V28.049H9.99486V15.7314H4.03549V28.049H0V0H4.03549V12.4584H9.99486V0Z" transform="translate(95.9688 1.93262)" fill="black"/>
<path d="M2.52218 1.67754H1.72446V0.856366C1.72446 0.750786 1.71273 0.680399 1.67754 0.656936C1.64235 0.621743 1.58369 0.610013 1.47811 0.610013H1.04406C0.938484 0.610013 0.868099 0.621743 0.832906 0.656936C0.797713 0.69213 0.785979 0.750786 0.785979 0.856366V4.53992C0.785979 4.6455 0.797713 4.71588 0.832906 4.73935C0.868099 4.77454 0.938484 4.78627 1.04406 4.78627H1.47811C1.58369 4.78627 1.65408 4.77454 1.67754 4.73935C1.71273 4.70415 1.72446 4.6455 1.72446 4.53992V3.71874H2.52218V4.63377C2.52218 5.14993 2.25236 5.39629 1.71274 5.39629H0.797711C0.258082 5.39629 0 5.1382 0 4.63377V0.762519C0 0.258083 0.269813 0 0.797711 0H1.71274C2.25236 0 2.52218 0.258083 2.52218 0.762519V1.67754Z" transform="translate(42.0781 34.4512)" fill="black"/>
<path d="M0.774251 3.21431V5.39629H0V0H1.77139C2.31102 0 2.5691 0.258083 2.5691 0.762519V2.45179C2.5691 2.88584 2.38141 3.13219 1.99428 3.20258L2.85065 5.39629H2.01774L1.2083 3.21431H0.774251V3.21431ZM0.774251 0.633476V2.59256H1.53677C1.64235 2.59256 1.71273 2.58083 1.74793 2.54564C1.78312 2.51044 1.79485 2.45179 1.79485 2.34621V0.879829C1.79485 0.77425 1.78312 0.703862 1.74793 0.6804C1.71273 0.645207 1.64235 0.633476 1.53677 0.633476H0.774251V0.633476Z" transform="translate(45.4805 34.4395)" fill="black"/>
<path d="M1.93562 5.38456H1.14964V3.68355L0 0H0.797711L1.5485 2.96796L2.25236 0H3.05008L1.94736 3.68355V5.38456H1.93562Z" transform="translate(48.5898 34.4512)" fill="black"/>
<path d="M0 0H1.77139C2.31102 0 2.5691 0.258083 2.5691 0.762519V2.55737C2.5691 3.0618 2.29929 3.31989 1.77139 3.31989H0.785982V5.40802H0.0117318V0H0ZM1.79485 2.42833V0.879829C1.79485 0.77425 1.78312 0.703862 1.74793 0.6804C1.71273 0.645207 1.64235 0.633476 1.53677 0.633476H0.774251V2.68641H1.53677C1.64235 2.68641 1.71273 2.67468 1.74793 2.63949C1.78312 2.60429 1.79485 2.53391 1.79485 2.42833Z" transform="translate(52.2129 34.4395)" fill="black"/>
<path d="M2.58083 0V0.633476H1.67754V5.39629H0.903293V0.633476H0V0H2.58083Z" transform="translate(55.1816 34.4395)" fill="black"/>
<path d="M0.809446 0H1.77139C2.31102 0 2.5691 0.258083 2.5691 0.762519V4.63377C2.5691 5.1382 2.29929 5.39629 1.77139 5.39629H0.809446C0.269817 5.39629 0 5.1382 0 4.63377V0.762519C0 0.258083 0.269817 0 0.809446 0ZM1.79486 4.51646V0.879829C1.79486 0.77425 1.78312 0.703862 1.74793 0.6804C1.71274 0.645207 1.64235 0.633476 1.53677 0.633476H1.03234C0.926759 0.633476 0.856372 0.645207 0.832909 0.6804C0.797716 0.715593 0.785982 0.77425 0.785982 0.879829V4.51646C0.785982 4.62204 0.797716 4.69242 0.832909 4.71588C0.868103 4.75108 0.926759 4.76281 1.03234 4.76281H1.53677C1.64235 4.76281 1.71274 4.75108 1.74793 4.71588C1.77139 4.69242 1.79486 4.62204 1.79486 4.51646Z" transform="translate(58.3242 34.4395)" fill="black"/>
<path d="M0 0H0.774247V5.39629H0V0Z" transform="translate(63.2988 34.4395)" fill="black"/>
<path d="M1.92389 0H2.63949V5.39629H1.85351L0.715592 1.50157V5.39629H0V0H0.821174L1.92389 3.7774V0V0Z" transform="translate(65.1406 34.4395)" fill="black"/>
<path d="M2.25236 0H3.05008L2.0764 5.39629H0.973676L0 0H0.797711L1.51331 4.68069L2.25236 0Z" transform="translate(68.3789 34.4395)" fill="black"/>
<path d="M0.785982 4.76281H2.34621V5.39629H0V0H2.28756V0.633476H0.785982V2.29929H2.02947V2.93276H0.785982V4.76281Z" transform="translate(72.0391 34.4395)" fill="black"/>
<path d="M1.66581 4.50473V3.19085C1.66581 3.08527 1.65408 3.01488 1.61888 2.99142C1.58369 2.95623 1.52503 2.94449 1.41946 2.94449H0.785982C0.258085 2.94449 0 2.68641 0 2.18197V0.762519C0 0.258083 0.269813 0 0.797711 0H1.64235C2.18198 0 2.44006 0.258083 2.44006 0.762519V1.56023H1.65408V0.891558C1.65408 0.785978 1.64235 0.715594 1.60716 0.692132C1.57196 0.656939 1.50157 0.645208 1.39599 0.645208H1.03233C0.926752 0.645208 0.856367 0.656939 0.821174 0.692132C0.785981 0.727325 0.774247 0.785978 0.774247 0.891558V2.08813C0.774247 2.19371 0.785981 2.26409 0.821174 2.28756C0.856367 2.32275 0.926752 2.33448 1.03233 2.33448H1.66581C2.19371 2.33448 2.46352 2.59256 2.46352 3.097V4.6455C2.46352 5.14993 2.1937 5.40801 1.65408 5.40801H0.821174C0.281545 5.40801 0.0234635 5.14993 0.0234635 4.6455V3.84779H0.809439V4.51646C0.809439 4.62204 0.821173 4.69242 0.856366 4.71588C0.891559 4.75108 0.961944 4.76281 1.06752 4.76281H1.43119C1.53677 4.76281 1.60715 4.75108 1.63061 4.71588C1.64234 4.68069 1.66581 4.6103 1.66581 4.50473Z" transform="translate(74.9961 34.4512)" fill="black"/>
<path d="M2.58083 0V0.633476H1.67754V5.39629H0.903293V0.633476H0V0H2.58083Z" transform="translate(77.9277 34.4395)" fill="black"/>
<path d="M0.6804 5.39629H0V0H0.856366L1.78312 3.34335L2.70988 0H3.56624V5.39629H2.88584V1.45465L2.14678 4.22318H1.44292L0.703864 1.45465V5.39629H0.6804Z" transform="translate(81.1074 34.4395)" fill="black"/>
<path d="M0.785982 4.76281H2.34621V5.39629H0V0H2.28756V0.633476H0.785982V2.29929H2.02948V2.93276H0.785982V4.76281Z" transform="translate(85.6582 34.4395)" fill="black"/>
<path d="M1.9239 0H2.63949V5.39629H1.85351L0.715599 1.50157V5.39629H0V0H0.821174L1.9239 3.7774V0V0Z" transform="translate(88.7324 34.4395)" fill="black"/>
<path d="M2.58083 0V0.633476H1.67754V5.39629H0.903286V0.633476H0V0H2.58083Z" transform="translate(91.9707 34.4395)" fill="black"/>
<path d="M0 0H1.86523C2.40486 0 2.67468 0.258083 2.67468 0.762519V2.13505C2.67468 2.44006 2.55737 2.61602 2.33448 2.67468C2.5691 2.73334 2.67468 2.89757 2.67468 3.17912V4.65723C2.67468 5.16166 2.40486 5.41975 1.86523 5.41975H0V0ZM1.8887 2.09986V0.868098C1.8887 0.762518 1.87697 0.69213 1.84178 0.668668C1.80658 0.633475 1.73619 0.621745 1.63061 0.621745H0.774247V2.35794H1.63061C1.73619 2.35794 1.80658 2.34621 1.84178 2.31102C1.87697 2.26409 1.8887 2.20544 1.8887 2.09986ZM1.8887 4.53992V3.21431C1.8887 3.10873 1.87697 3.03834 1.84178 3.01488C1.80658 2.97969 1.73619 2.96796 1.63061 2.96796H0.774247V4.798H1.63061C1.73619 4.798 1.80658 4.78627 1.84178 4.75108C1.87697 4.70415 1.8887 4.63377 1.8887 4.53992Z" transform="translate(96.5215 34.4395)" fill="black"/>
<path d="M2.32275 5.39629L2.11159 4.15279H0.973676L0.774247 5.39629H0L0.961948 0H2.08813L3.10873 5.39629H2.32275ZM1.06752 3.51932H2.00601L1.5133 0.6804L1.06752 3.51932Z" transform="translate(99.8066 34.4395)" fill="black"/>
<path d="M1.9239 0H2.63949V5.39629H1.85351L0.715599 1.50157V5.39629H0V0H0.821174L1.9239 3.7774V0V0Z" transform="translate(103.572 34.4395)" fill="black"/>
<path d="M0 5.39629V0H0.774247V5.39629H0ZM2.78026 0L1.64235 2.70988L2.76853 5.39629H1.92389L0.832902 2.70988L1.94735 0H2.78026Z" transform="translate(107.221 34.4395)" fill="black"/>
<path d="M8.06803 2.94156L20.2566 15.1301L22.7319 12.6549L10.5433 0.46631C9.92154 -0.155437 8.90094 -0.155437 8.27919 0.46631L8.06803 0.677469C7.44629 1.29921 7.44629 2.30809 8.06803 2.94156ZM30.9319 10.5433C31.5536 9.92154 31.5536 8.90094 30.9319 8.27919L30.7207 8.06804C30.099 7.44629 29.0784 7.44629 28.4566 8.06804L16.268 20.2566L18.7433 22.7319L30.9319 10.5433ZM23.3301 2.94156C23.9519 2.31982 23.9519 1.29921 23.3301 0.677469L23.119 0.46631C22.4972 -0.155437 21.4766 -0.155437 20.8549 0.46631L16.268 5.05315L18.7433 7.52841L23.3301 2.94156ZM0.677469 8.06804L0.46631 8.27919C-0.155437 8.90094 -0.155437 9.92154 0.46631 10.5433L5.06488 15.1301L7.54014 12.6549L2.94156 8.06804C2.31982 7.43456 1.29921 7.43456 0.677469 8.06804ZM23.3301 28.4566L11.1416 16.2563L8.66632 18.7316L20.8549 30.9201C21.4766 31.5419 22.4972 31.5419 23.119 30.9201L23.3301 30.709C23.9519 30.0872 23.9519 29.0784 23.3301 28.4566ZM30.9319 20.8549L26.345 16.268L23.8698 18.7433L28.4566 23.3301C29.0784 23.9519 30.099 23.9519 30.7207 23.3301L30.9319 23.119C31.5536 22.4972 31.5536 21.4766 30.9319 20.8549ZM0.46631 20.8549C-0.155437 21.4766 -0.155437 22.4972 0.46631 23.119L0.677469 23.3301C1.29921 23.9519 2.31982 23.9519 2.94156 23.3301L15.1301 11.1416L12.6549 8.66632L0.46631 20.8549ZM8.06803 28.4566C7.44629 29.0784 7.44629 30.099 8.06803 30.7207L8.27919 30.9319C8.90094 31.5536 9.92154 31.5536 10.5433 30.9319L15.1301 26.345L12.6549 23.8698L8.06803 28.4566Z" fill="#7B965A"/>
</svg>
