<svg width="567" height="181" viewBox="0 0 567 181" fill="none" xmlns="http://www.w3.org/2000/svg">
<path d="M54.57 108.57C38.8233 108.57 25.7933 103.533 15.48 93.46C5.16666 83.3867 0.00666423 70.3233 -2.44141e-06 54.27C-2.44141e-06 38.33 5.20666 25.3 15.62 15.18C26.0333 5.06 39.0167 3.05176e-07 54.57 3.05176e-07C70.1167 3.05176e-07 83.1 5.06 93.52 15.18C103.94 25.3 109.147 38.33 109.14 54.27C109.14 67.3767 105.473 78.6733 98.14 88.16L110.61 100.63L94.47 116.63L80.39 102.69C72.3643 106.65 63.5189 108.664 54.57 108.57V108.57ZM31.76 77.03C37.76 82.8967 45.3633 85.83 54.57 85.83C63.7767 85.83 71.38 82.83 77.38 76.83C83.38 70.83 86.38 63.3233 86.38 54.31C86.38 45.0233 83.38 37.4433 77.38 31.57C71.38 25.6967 63.7767 22.7633 54.57 22.77C45.3767 22.77 37.7733 25.77 31.76 31.77C25.7467 37.77 22.7467 45.2767 22.76 54.29C22.7467 63.5633 25.7467 71.1333 31.76 77V77.03Z" transform="translate(226.06 36.4301)" fill="black"/>
<path d="M79.05 -1.52588e-06V22.74H50.82V102.65H28.08V22.74H-1.34277e-05V-1.52588e-06H79.05Z" transform="translate(448.58 39.35)" fill="black"/>
<path d="M82.98 50.07C87.54 44.98 89.85 37.65 89.85 29.78C89.85 20.88 86.82 13.6933 80.76 8.22C74.7 2.74667 66.78 0.00666514 57 -1.52588e-06H1.46484e-05V102.65H61.17C70.95 102.65 78.87 99.8867 84.93 94.36C90.99 88.8333 94.02 81.62 94.02 72.72C93.9231 68.3716 92.8862 64.0957 90.9805 60.186C89.0748 56.2762 86.3455 52.8252 82.98 50.07ZM22.72 22.74H55.23C63.15 22.74 67.11 25.6733 67.11 31.54C67.11 37.2133 63.15 40.05 55.23 40.05H22.72V22.74ZM59.25 79.95H22.72V62.65H59.25C67.25 62.65 71.25 65.5367 71.25 71.31C71.25 77.0833 67.25 79.9633 59.25 79.95V79.95Z" transform="translate(349.39 39.35)" fill="black"/>
<path d="M13.1361 0.00554506C14.8656 -0.0292355 16.5841 0.288273 18.1869 0.938747C19.7898 1.58922 21.2435 2.55905 22.4597 3.78922C23.6758 5.01938 24.6289 6.48415 25.261 8.09437C25.893 9.70459 26.1908 11.4266 26.1361 13.1555C26.1361 16.6206 24.7596 19.9437 22.3095 22.3939C19.8593 24.8441 16.5362 26.2205 13.0711 26.2205C9.60608 26.2205 6.28295 24.8441 3.83279 22.3939C1.38262 19.9437 0.00612771 16.6206 0.00612771 13.1555C-0.0478298 11.4157 0.25474 9.68331 0.895227 8.0648C1.53571 6.44629 2.50056 4.97594 3.73043 3.74419C4.96031 2.51244 6.42924 1.54534 8.04678 0.902394C9.66431 0.259444 11.3963 -0.0457643 13.1361 0.00554506V0.00554506ZM13.1361 23.8655C19.1361 23.8655 23.5962 19.5755 23.5962 13.1555C23.5962 6.73554 19.1361 2.33555 13.1361 2.33555C7.13613 2.33555 2.63613 6.65554 2.63613 13.1455C2.57402 14.5507 2.80153 15.9537 3.30447 17.2672C3.80741 18.5808 4.57503 19.7769 5.55972 20.7813C6.54441 21.7857 7.72512 22.5769 9.02847 23.1058C10.3318 23.6346 11.73 23.8898 13.1361 23.8555V23.8655ZM16.6261 15.2155L19.2761 15.9155C18.85 17.1845 18.0176 18.2777 16.9077 19.026C15.7978 19.7744 14.4723 20.1362 13.1361 20.0555C8.84613 20.0555 6.57614 17.3655 6.57614 12.8055C6.57614 8.24555 9.05611 5.65554 13.2361 5.65554C14.5995 5.5604 15.9523 5.95401 17.0518 6.76582C18.1513 7.57763 18.9257 8.75454 19.2361 10.0855L16.6161 10.8155C16.5002 9.98321 16.087 9.22094 15.4529 8.66952C14.8188 8.11809 14.0065 7.81476 13.1662 7.81554C11.0362 7.81554 9.46615 9.38554 9.46615 12.8155C9.46615 16.2455 11.0362 17.8155 13.1662 17.8155C13.9565 17.8565 14.7359 17.6171 15.367 17.1396C15.9982 16.6622 16.4405 15.9772 16.6161 15.2055L16.6261 15.2155Z" transform="translate(539.864 13.7345)" fill="black"/>
<path d="M180.71 67.69L113 0L90.36 22.67L67.69 0L0 67.69L22.67 90.36L0 113L67.69 180.69L90.36 158L113 180.71L180.71 113L158 90.36L180.71 67.69ZM156.63 90.36L90.36 156.63L24.08 90.36L90.36 24.08L156.63 90.36Z" fill="#FF8C00"/>
</svg>
